<?xml version="1.0" standalone="no"?>
<!DOCTYPE svg PUBLIC "-//W3C//DTD SVG 20010904//EN"
 "http://www.w3.org/TR/2001/REC-SVG-20010904/DTD/svg10.dtd">
<svg version="1.0" xmlns="http://www.w3.org/2000/svg"
 width="512.000000pt" height="512.000000pt" viewBox="0 0 512.000000 512.000000"
 preserveAspectRatio="xMidYMid meet">

<g transform="translate(0.000000,512.000000) scale(0.100000,-0.100000)"
fill="#000000" stroke="none">
<path d="M0 2560 l0 -2560 1955 0 1955 0 0 230 0 230 -785 0 c-491 0 -822 4
-883 11 -322 35 -658 153 -848 298 -44 33 -131 112 -194 175 l-115 116 115
116 c63 63 151 142 194 175 138 105 335 191 566 248 242 59 282 61 1156 61
l794 0 0 1125 0 1125 -600 0 -600 0 0 605 0 605 -1355 0 -1355 0 0 -2560z
m2410 1500 l0 -150 -905 0 -905 0 0 150 0 150 905 0 905 0 0 -150z m900 -600
l0 -150 -1355 0 -1355 0 0 150 0 150 1355 0 1355 0 0 -150z m0 -600 l0 -150
-1355 0 -1355 0 0 150 0 150 1355 0 1355 0 0 -150z m0 -600 l0 -150 -1355 0
-1355 0 0 150 0 150 1355 0 1355 0 0 -150z m-2100 -600 l0 -150 -305 0 -305 0
0 150 0 150 305 0 305 0 0 -150z"/>
<path d="M3010 4622 l0 -412 407 0 406 0 -353 358 c-194 196 -377 382 -407
412 l-53 55 0 -413z"/>
<path d="M2213 1344 c-260 -37 -538 -142 -653 -244 l-45 -40 45 -40 c92 -82
318 -177 522 -220 101 -21 243 -40 295 -40 l33 0 0 300 0 300 -52 -1 c-29 -1
-94 -7 -145 -15z"/>
<path d="M2710 1060 l0 -300 755 0 755 0 0 300 0 300 -755 0 -755 0 0 -300z"/>
<path d="M4520 1060 l0 -302 188 4 c181 3 189 4 244 31 107 53 162 143 163
267 0 62 -5 85 -28 132 -32 64 -80 111 -146 142 -41 19 -68 21 -233 24 l-188
4 0 -302z"/>
</g>
</svg>
